<?xml version="1.0" encoding="UTF-8"?>
<svg id="_图层_2" data-name="图层 2" xmlns="http://www.w3.org/2000/svg" viewBox="0 0 877.08 391.85">
  <g id="_图层_1-2" data-name="图层 1">
    <g>
      <path d="M14.2,343.24v-155.64h51.47c10.75,0,20.83,2.02,30.24,6.06,9.41,4.04,17.68,9.64,24.79,16.79,7.12,7.15,12.69,15.42,16.73,24.79,4.04,9.38,6.06,19.44,6.06,30.18s-2.02,20.81-6.06,30.18c-4.04,9.38-9.62,17.64-16.73,24.79-7.12,7.15-15.38,12.75-24.79,16.79-9.41,4.04-19.49,6.06-30.24,6.06H14.2ZM29.77,327.67h35.91c8.6,0,16.66-1.61,24.18-4.84,7.52-3.22,14.14-7.69,19.84-13.4s10.17-12.32,13.4-19.84c3.22-7.52,4.84-15.58,4.84-24.18s-1.61-16.66-4.84-24.18c-3.22-7.52-7.71-14.14-13.45-19.84-5.74-5.71-12.36-10.17-19.84-13.4-7.49-3.22-15.53-4.84-24.12-4.84H29.77v124.51Z"/>
      <path d="M214.44,345.2c-11.48,0-21.94-2.95-31.38-8.86-9.44-5.9-16.97-13.83-22.58-23.77-5.61-9.94-8.42-20.94-8.42-33,0-9.15,1.62-17.7,4.87-25.64,3.24-7.94,7.71-14.93,13.41-20.96,5.7-6.03,12.33-10.75,19.9-14.16,7.57-3.41,15.64-5.12,24.2-5.12,9.23,0,17.74,1.83,25.51,5.49,7.78,3.66,14.47,8.78,20.09,15.35,5.61,6.57,9.86,14.27,12.73,23.08,2.87,8.82,4.05,18.34,3.56,28.57h-105.8c1,7.9,3.51,14.97,7.55,21.21,4.03,6.24,9.19,11.17,15.47,14.78,6.28,3.62,13.24,5.47,20.9,5.55,8.32,0,15.82-2.16,22.52-6.49,6.69-4.32,12.08-10.27,16.16-17.84l17.72,4.12c-4.99,11.06-12.52,20.11-22.58,27.14-10.07,7.03-21.34,10.54-33.81,10.54ZM170.03,272.09h88.71c-.58-7.74-2.93-14.83-7.05-21.27-4.12-6.44-9.42-11.6-15.91-15.47-6.49-3.87-13.6-5.8-21.33-5.8s-14.81,1.89-21.21,5.68c-6.41,3.79-11.65,8.9-15.72,15.35-4.08,6.45-6.57,13.62-7.49,21.52Z"/>
      <path d="M731.95,345.2c-11.48,0-21.94-2.95-31.38-8.86-9.44-5.9-16.97-13.83-22.58-23.77-5.61-9.94-8.42-20.94-8.42-33,0-9.15,1.62-17.7,4.87-25.64,3.24-7.94,7.71-14.93,13.41-20.96,5.7-6.03,12.33-10.75,19.9-14.16,7.57-3.41,15.64-5.12,24.2-5.12,9.23,0,17.74,1.83,25.51,5.49,7.78,3.66,14.47,8.78,20.09,15.35,5.61,6.57,9.86,14.27,12.73,23.08,2.87,8.82,4.05,18.34,3.56,28.57h-105.8c1,7.9,3.51,14.97,7.55,21.21,4.03,6.24,9.19,11.17,15.47,14.78,6.28,3.62,13.24,5.47,20.9,5.55,8.32,0,15.82-2.16,22.52-6.49,6.69-4.32,12.08-10.27,16.16-17.84l17.72,4.12c-4.99,11.06-12.52,20.11-22.58,27.14-10.07,7.03-21.34,10.54-33.81,10.54ZM687.53,272.09h88.71c-.58-7.74-2.93-14.83-7.05-21.27-4.12-6.44-9.42-11.6-15.91-15.47-6.49-3.87-13.6-5.8-21.33-5.8s-14.81,1.89-21.21,5.68c-6.41,3.79-11.65,8.9-15.72,15.35-4.08,6.45-6.57,13.62-7.49,21.52Z"/>
      <path d="M326.14,345.17c-6.83-.17-13.5-1.42-20-3.75s-12.17-5.5-17-9.5c-4.83-4-8.29-8.54-10.38-13.63l15.13-6.5c1.33,3.25,3.81,6.23,7.44,8.94,3.63,2.71,7.77,4.88,12.44,6.5,4.67,1.63,9.29,2.44,13.88,2.44,5.08,0,9.83-.83,14.25-2.5,4.42-1.67,8.02-4.06,10.81-7.19,2.79-3.13,4.19-6.81,4.19-11.06,0-4.58-1.5-8.19-4.5-10.81-3-2.63-6.79-4.71-11.38-6.25-4.58-1.54-9.29-3.02-14.13-4.44-8.83-2.42-16.63-5.08-23.38-8-6.75-2.92-12.02-6.64-15.81-11.19-3.79-4.54-5.69-10.4-5.69-17.56,0-7.58,2.14-14.15,6.44-19.69,4.29-5.54,9.92-9.83,16.88-12.88,6.96-3.04,14.4-4.56,22.31-4.56,10.17,0,19.44,2.21,27.82,6.63,8.38,4.42,14.44,10.29,18.19,17.63l-14.13,8.38c-1.5-3.42-3.88-6.38-7.13-8.88-3.25-2.5-6.94-4.46-11.06-5.88-4.13-1.42-8.31-2.17-12.56-2.25-5.33-.08-10.29.69-14.88,2.31-4.58,1.63-8.27,4.02-11.06,7.19-2.79,3.17-4.19,7.04-4.19,11.63s1.38,8.06,4.13,10.44c2.75,2.38,6.48,4.29,11.19,5.75,4.71,1.46,10.02,3.15,15.94,5.06,7.58,2.42,14.71,5.17,21.38,8.25,6.67,3.08,12.04,6.92,16.13,11.5,4.08,4.58,6.08,10.38,6,17.38,0,7.5-2.25,14.04-6.75,19.63-4.5,5.58-10.34,9.86-17.5,12.81-7.17,2.96-14.84,4.31-23,4.06Z"/>
      <path d="M395.39,205.62c-2.67,0-4.92-.88-6.76-2.65-1.84-1.76-2.76-3.98-2.76-6.64s.92-4.88,2.76-6.64c1.84-1.76,4.1-2.65,6.76-2.65s4.8.88,6.64,2.65c1.84,1.76,2.76,3.98,2.76,6.64s-.9,4.88-2.7,6.64c-1.8,1.76-4.04,2.65-6.7,2.65ZM387.04,226.2h16.46v117.59h-16.46v-117.59Z"/>
      <path d="M658.64,265.05v77.96h-17.63v-74.44c0-6.88-1.68-13.14-5.04-18.77-3.36-5.62-7.85-10.12-13.48-13.48-5.63-3.36-11.88-5.04-18.77-5.04s-13.04,1.68-18.7,5.04c-5.67,3.36-10.18,7.85-13.54,13.48-3.36,5.63-5.04,11.88-5.04,18.77v74.44h-17.63v-125.95h17.63v17.38c4.45-6.38,10.24-11.46,17.38-15.24,7.14-3.78,14.9-5.67,23.3-5.67,9.49,0,18.14,2.31,25.95,6.93,7.81,4.62,14.02,10.83,18.64,18.64,4.62,7.81,6.93,16.46,6.93,25.95Z"/>
      <path d="M804.75,343.01v-125.79h17.61v17.36c4.44-6.37,10.23-11.45,17.36-15.22,7.13-3.77,14.88-5.66,23.27-5.66,4.86,0,9.56.63,14.09,1.89l-7.17,17.49c-3.52-1.09-6.96-1.64-10.31-1.64-6.79,0-13.02,1.68-18.68,5.03-5.66,3.36-10.17,7.84-13.52,13.46-3.35,5.62-5.03,11.87-5.03,18.74v74.34h-17.61Z"/>
      <path d="M284.67,77.98h75.26v16.46h-75.26v-16.46Z"/>
      <path d="M251.71,23.17c-2.67,0-4.92-.88-6.76-2.65-1.84-1.76-2.76-3.98-2.76-6.64s.92-4.88,2.76-6.64c1.84-1.76,4.1-2.65,6.76-2.65s4.8.88,6.64,2.65c1.84,1.76,2.76,3.98,2.76,6.64s-.9,4.88-2.7,6.64c-1.8,1.76-4.04,2.65-6.7,2.65ZM243.36,43.75h16.46v117.59h-16.46V43.75Z"/>
      <path d="M77.21,162.61c-10.76,0-20.83-2.11-30.2-6.33-9.38-4.22-17.58-10.09-24.6-17.59-7.02-7.51-12.51-16.17-16.47-26-3.96-9.82-5.94-20.34-5.94-31.55s2.05-22.08,6.16-31.94c4.11-9.86,9.75-18.47,16.92-25.83,7.17-7.36,15.41-13.09,24.71-17.2C57.1,2.06,66.98,0,77.44,0c12.03,0,23.4,2.8,34.12,8.4,10.72,5.6,19.82,13.56,27.29,23.87l-14.01,7.62c-5.98-7.84-13.17-13.86-21.57-18.04-8.41-4.18-17.05-6.28-25.94-6.28s-16.38,1.7-23.81,5.1c-7.43,3.4-13.99,8.12-19.67,14.18-5.68,6.05-10.12,13.04-13.34,20.96-3.21,7.92-4.82,16.44-4.82,25.55s1.61,17.52,4.82,25.44c3.21,7.92,7.64,14.89,13.28,20.9,5.64,6.01,12.2,10.72,19.67,14.12,7.47,3.4,15.47,5.1,23.98,5.1,7.02,0,13.69-1.21,20-3.64,6.31-2.43,12.08-5.84,17.31-10.25,5.23-4.41,9.66-9.56,13.28-15.47,3.62-5.9,6.26-12.33,7.9-19.28h-42.36v-14.23h60.63c-.22,10.83-2.39,20.99-6.5,30.48-4.11,9.49-9.69,17.84-16.75,25.05-7.06,7.21-15.17,12.85-24.32,16.92-9.15,4.07-18.96,6.11-29.42,6.11Z"/>
      <path d="M162.48,161.46V35.67h17.61v17.36c4.44-6.37,10.23-11.45,17.36-15.22,7.13-3.77,14.88-5.66,23.27-5.66,4.86,0,9.56.63,14.09,1.89l-7.17,17.49c-3.52-1.09-6.96-1.64-10.31-1.64-6.79,0-13.02,1.68-18.68,5.03-5.66,3.36-10.17,7.84-13.52,13.46-3.35,5.62-5.03,11.87-5.03,18.74v74.34h-17.61Z"/>
      <path d="M516.03,216.69h16.35v121.1c0,7.47-1.62,14.48-4.85,21.02-3.23,6.54-7.59,12.28-13.08,17.22-5.49,4.94-11.74,8.82-18.74,11.62-7.01,2.8-14.29,4.2-21.84,4.2-8.1,0-15.92-1.85-23.47-5.55-7.55-3.7-14.11-8.62-19.68-14.77-5.57-6.15-9.52-12.96-11.85-20.44l15.06-6.89c1.48,5.84,4.26,11.11,8.35,15.82,4.09,4.71,8.91,8.45,14.48,11.21,5.57,2.76,11.27,4.15,17.11,4.15,5.37,0,10.57-.99,15.59-2.98,5.02-1.99,9.54-4.69,13.55-8.12,4.01-3.43,7.18-7.42,9.52-11.97,2.34-4.55,3.5-9.4,3.5-14.54v-25.81c-4.05,7.32-9.52,13.24-16.41,17.75-6.89,4.51-14.89,6.77-24,6.77-8.17,0-15.86-1.6-23.06-4.79-7.2-3.19-13.53-7.61-18.98-13.25-5.45-5.64-9.71-12.16-12.79-19.56-3.08-7.4-4.61-15.34-4.61-23.82s1.54-16.45,4.61-23.88c3.07-7.43,7.34-13.97,12.79-19.62,5.45-5.64,11.77-10.06,18.98-13.25,7.2-3.19,14.89-4.79,23.06-4.79,9.11,0,17.11,2.24,24,6.71,6.89,4.48,12.36,10.41,16.41,17.81v-21.37ZM475.74,320.62c8.1,0,15.08-2.1,20.96-6.31,5.88-4.2,10.41-9.77,13.6-16.7,3.19-6.93,4.79-14.44,4.79-22.54s-1.62-15.94-4.85-22.83c-3.23-6.89-7.81-12.42-13.72-16.58-5.92-4.16-12.85-6.25-20.79-6.25s-15.16,2.04-21.66,6.13c-6.5,4.09-11.66,9.6-15.47,16.52-3.82,6.93-5.72,14.6-5.72,23s1.95,16.06,5.84,22.95c3.89,6.89,9.09,12.38,15.59,16.47,6.5,4.09,13.64,6.13,21.43,6.13Z"/>
    </g>
  </g>
</svg>